/* XPM */
static char *_765041130_Untitled_design_1_[] = {
/* columns rows colors chars-per-pixel */
"32 32 113 2 ",
"   c #010101",
".  c #080705",
"X  c #0D0A01",
"o  c #02040A",
"O  c #0C0C0C",
"+  c #100D00",
"@  c #171200",
"#  c #1A1301",
"$  c #090B11",
"%  c #161616",
"&  c #191814",
"*  c #1D1C1C",
"=  c #251D00",
"-  c #2A1F00",
";  c #3F3202",
":  c #232323",
">  c #2D2D2D",
",  c #2E2F31",
"<  c #323232",
"1  c #3F3F3F",
"2  c #423401",
"3  c #574201",
"4  c #5A4502",
"5  c #624B01",
"6  c #645205",
"7  c #7B5E03",
"8  c #7D6003",
"9  c #595134",
"0  c #7A6B39",
"q  c #424242",
"w  c #4B4B4B",
"e  c #50504E",
"r  c #4D4F56",
"t  c #4F5052",
"y  c #525252",
"u  c #595959",
"i  c #5C5D60",
"p  c #595E6B",
"a  c #666666",
"s  c #696867",
"d  c #6C6C6C",
"f  c #6C6E74",
"g  c #737373",
"h  c #7B7B7B",
"j  c #876703",
"k  c #896400",
"l  c #8E6C04",
"z  c #8D7206",
"x  c #8A7B50",
"c  c #A98004",
"v  c #B78A04",
"b  c #B98D05",
"n  c #BC9104",
"m  c #BD9905",
"M  c #D3A105",
"N  c #EDB406",
"B  c #EEB509",
"V  c #F1B605",
"C  c #FAB400",
"Z  c #F3BB06",
"A  c #FBBC02",
"S  c #F4BA0B",
"D  c #F8BE0D",
"F  c #FFC305",
"G  c #FFCD06",
"H  c #FFC20D",
"J  c #FBCD0B",
"K  c #FFD107",
"L  c #FFDA07",
"P  c #FFD10B",
"I  c #FDC210",
"U  c #FBC319",
"Y  c #FFE00C",
"T  c #FBC422",
"R  c #F5C22B",
"E  c #BAA157",
"W  c #8E897A",
"Q  c #FAD469",
"!  c #FFE474",
"~  c #838383",
"^  c #8D8D8D",
"/  c #95938D",
"(  c #969696",
")  c #9A9A9A",
"_  c #A2A2A2",
"`  c #AAAAAA",
"'  c #AEB2BE",
"]  c #FADF8B",
"[  c #FEE085",
"{  c #FEE28E",
"}  c #FFEA97",
"|  c #FFF495",
" . c #FFF398",
".. c #FBE5A2",
"X. c #FFEFA5",
"o. c #FFF3A7",
"O. c #FFF3AA",
"+. c #BCC1CE",
"@. c #C2C6D4",
"#. c #C3C8D5",
"$. c #FEEFC1",
"%. c #FDF0C6",
"&. c #FDF0CB",
"*. c #FEF4D8",
"=. c #E8E7E5",
"-. c #EBEAE8",
";. c #F6F2E7",
":. c #E2E7F4",
">. c #E4E8F5",
",. c #E7ECF9",
"<. c #FEFCF4",
"1. c #F4F6FB",
"2. c #FFFDFB",
/* pixels */
") ) ) ( ) ) ) ( ) ) ) ( ( _ w   : ) ) ) ) ) ) ) ) ) ( ) ( _ s   ",
") ) ) ) ) ) ) ) ) ) ) ( ( _ w   : ) ) ) ) ( ) ( ( ) ) ) ( _ s   ",
") ) ) ) ) ) ) ) ) ( ) ) ( _ w   : ) ( ( ) ) ) ) ) ) ) ) ( _ s   ",
"( ( ) ( ( ) ( ( ) ( ) ) ) ` w   : _ _ ) ) ) ( ) ) ( ( ) ( _ s   ",
"( ( ( ) ( ) ) ( ) ( ) ^ h ~ 1   : ~ h h ^ ) ( ( ( ( ( ) ( _ a   ",
"_ _ _ ) _ ) ) _ ) ( ` u             .   e ` ) ) _ _ _ ) _ ` d   ",
"< < < < < > < < > : %     ' @.+.@.p     O : : > > > < < < < :   ",
"                    y i s ..o.o.O.E 4 6 -                       ",
"y y y t y %     . * ;.2.<.U A A A F Z L l X   %   . w y t y y r ",
"_ _ _ _ _ :     d -.R I T *.<.2.2.~ + B F M @ .   . ^ ` _ _ _ _ ",
"( ( ( ( ( :     f 2.U A H <.$.Q ! 0   B J N       . ~ ) ( ( ( ( ",
"( ) ( ) ) :   , W %.U A H <.] C G 7   N F N 2 @     h _ ( ) ( ( ",
") ( ) ( ) :   ,. .A F A H 2.{ A P 8   V F F P 8     y _ ( ( ) ( ",
") ) ) ) _ *   :.} A H F H 2.{ A P 8   N F Z G 7     y ` ) ) ) ) ",
"/ ^ ^ / ^ *   :.} A H F H 2.{ C P 8   V F D G 7     w ) ^ ^ ( ^ ",
"O O $ O $ . . :.} C H A I 2.{ A G 8   V F Z G 7     . O O O O O ",
"            . :.} A H F H 2.{ A P 8   N F Z P 7                 ",
"h h g h ~ q   >.} A H A I <.{ C P 8   V F Z K 7     q ~ g ~ y   ",
") _ _ ) ` u   >.} A H F H 2.{ A P 8   V F D K 7     y ` ) ` d   ",
"( ( ( ( _ y   ,.} C H A H <.] C J 7   N F Z K 8     y _ ( _ a   ",
") ) ) ( _ y   > W &.U F H 2. .G Y j   N F N 2 @ O g ^ ) ( _ s   ",
"( ( ( ( ) g 1   f 2.I A D / x k z 2   N G N .   . ( ) ( ( ) a   ",
"_ _ _ _ _ ` ` o a =.R H N #   . . + = N Z M X O : ( _ _ _ ` d   ",
"d d d d d s a O . % 1. .F D V S V Z F L l .   < d d f d d g w   ",
"                o o r 9 5 D G G L b 4 5 -                       ",
"* % % % % .   . % % o     c b v m 3     o % % O     % * % % % % ",
"( ( ( ( ( :   w _ ^ _ r   o o       .   w ) ) g   . ~ ( ( ( ( ( ",
"( ) ( ) ) :   w _ ( _ ^ x ^ ~ ~ ~ x ~ ~ ^ ) ) g   . ~ _ ( ) ) ) ",
"( ) ) ( ) :   w _ ( ) ) _ ) ) _ _ _ ) _ ) ( _ g   o ~ ) ( ) ( ) ",
") ) ( ) ) :   w _ ( ) ( ( ) ( ( ) ) ( ( ) ( _ g   . ^ _ ( ) ) ) ",
") ) ) ( ) :   w _ ) ( ) ) ) ) ( ) ( ) ) ) ( _ g   . ~ ) ( ( ( ) ",
") ) ( ( _ :   w _ ( ( ) ) ) ) ) ) ) ) ) ( ( _ f   . ^ ) ( ) ) ) "
};
