/* XPM */
static char *_765041040_Untitled_design_2_1_[] = {
/* columns rows colors chars-per-pixel */
"32 32 119 2 ",
"   c #000000",
".  c #000900",
"X  c #070008",
"o  c #0A070A",
"O  c #0D0D0D",
"+  c #011500",
"@  c #041C03",
"#  c #0E110E",
"$  c #150D15",
"%  c #171717",
"&  c #1B1B1B",
"*  c #062205",
"=  c #082606",
"-  c #002E00",
";  c #0B2C09",
":  c #003300",
">  c #023900",
",  c #0E330C",
"<  c #11370E",
"1  c #271C28",
"2  c #281D29",
"3  c #252325",
"4  c #262926",
"5  c #2C212D",
"6  c #2B292B",
"7  c #2F2530",
"8  c #2F2930",
"9  c #302631",
"0  c #332A33",
"q  c #372B38",
"w  c #392D3A",
"e  c #353235",
"r  c #373138",
"t  c #3A323A",
"y  c #004F00",
"u  c #005200",
"i  c #0C5706",
"p  c #015C00",
"a  c #016400",
"s  c #056E00",
"d  c #10640A",
"f  c #067100",
"g  c #097103",
"h  c #11790B",
"j  c #176811",
"k  c #1B7C14",
"l  c #1E7F18",
"z  c #443C44",
"x  c #474048",
"c  c #4B4B4B",
"v  c #4F514F",
"b  c #525352",
"n  c #575957",
"m  c #646564",
"M  c #6B6B6B",
"N  c #747574",
"B  c #757875",
"V  c #797A79",
"C  c #0F8409",
"Z  c #10860A",
"A  c #11880C",
"S  c #16900F",
"D  c #1A8413",
"F  c #198812",
"G  c #1A9513",
"H  c #1B9E13",
"J  c #25861E",
"K  c #23971B",
"L  c #239D1B",
"P  c #1DA315",
"I  c #1EA916",
"U  c #20A417",
"Y  c #27A31E",
"T  c #29A61F",
"R  c #22AD19",
"E  c #24B21B",
"W  c #28BA1F",
"Q  c #2BA422",
"!  c #2AA921",
"~  c #31AF27",
"^  c #2ABC20",
"/  c #33B22A",
"(  c #32BE28",
")  c #2DC523",
"_  c #2DCA23",
"`  c #31C726",
"'  c #31CC27",
"]  c #33C029",
"[  c #34CC29",
"{  c #32D027",
"}  c #34D429",
"|  c #3AD02F",
" . c #35D82A",
".. c #3ED433",
"X. c #3BDC30",
"o. c #3DE731",
"O. c #3FEC33",
"+. c #3FF033",
"@. c #42D537",
"#. c #45D539",
"$. c #41EB35",
"%. c #42F436",
"&. c #45F438",
"*. c #46FB39",
"=. c #4BFE3E",
"-. c #4FFF41",
";. c #52FE44",
":. c #57FF48",
">. c #848484",
",. c #8C8C8C",
"<. c #969696",
"1. c #979996",
"2. c #999999",
"3. c #9FA19F",
"4. c #A0A39F",
"5. c #A2A4A2",
"6. c #A6A9A6",
"7. c #ABACAB",
"8. c #ADB0AC",
/* pixels */
"2.2.2.2.2.2.2.2.2.2.2.2.1.5.c   3 2.2.2.2.2.2.2.2.2.2.2.<.5.M   ",
"2.2.2.2.2.<.<.2.<.2.2.<.<.5.c   3 2.2.2.2.1.1.<.2.2.2.2.<.5.M   ",
"2.2.1.2.2.1.1.1.1.1.1.1.<.3.c   3 2.1.1.1.1.1.1.<.<.1.1.<.5.M   ",
"2.1.2.5.5.5.5.5.5.5.5.5.3.7.v   6 5.5.5.5.5.5.5.5.5.5.5.2.7.m   ",
"1.2.b 9 7 5 9 9 7 9 9 9 5 0 $   X 7 7 7 7 7 7 7 9 9 5 9 0 m M   ",
"2.7.5 d ~ Q ! T Y Y Y Y ! ! ~ / / ! ! ! ! ! ! ! ! ! ! ~ i t V   ",
"e e $ d I I P  .;.=.;.%.I P P I I I R I R I I P I P P R d $ 4   ",
"      D [ S u U =.&.=.{ g ' W s a a a a a p ^ C H [ ) P >       ",
"v n $ Q :.^ p E =.*.=.} A =.&.f f g f f g s A ' R ' :._ > & n v ",
"5.8.5 K ;.R u E -.*.=.} C =.$.g s f f s f s ^ R E o.=.) - t 7.3.",
"<.5.5 K ;.R p R =.*.=.} C =.+.g s s g f f s A ) R ) ;.) - t 3.<.",
"1.5.2 K :.R p E -.*.=.} C =.O.f s f s s s s ^ R E $.=.) - w 5.<.",
"1.3.5 K :.R p R =.*.=.} Z =.+.f s g f s s s C ` U ) -.) - r 5.1.",
"2.5.7 K :.R p R =.*.=.} C =.$.f s s s s s s ^ I E $.=.) - t 5.1.",
",.1.2 K ;.R p R =.*.=.} C =.O.f s f g s g s Z ) R ) -.) : 0 2.,.",
"O #   Q ;.E p E -.*.=. .Z =.%.f f f f f g s ^ E W $.=._ > X O O ",
"      @ < * + * , , , ; @ , , + + + + + + + , @ = < , = .       ",
"V V V 3                                                 6 >.b   ",
"3.3.2.1.5 j #.L y F @.| ..( a p p a p p ( h ! @.F a - t <.7.M   ",
"2.<.<.7.w D :.) a P =.=.=.+.f f g f g } P _ *.-.U f : z 5.2.M   ",
"2.2.<.5.q k ;.W p H =.*.=.o.s s f f s C { H { -.P s - z 5.5.M   ",
"<.<.<.5.q k ;.W p P =.*.*.o.f s g g f { H ) %.-.U s - z 3.2.m   ",
"5.5.3.7.w k :.W p P =.*.=.o.f s s g s C { H } -.P s - z 7.6.M   ",
"M M M B 1 l ;.^ p P =.*.=.o.f s g s s { P ) &.-.P f > 6 N N c X ",
"          J ;.W p P =.*.=.o.f s f f g C } H } -.P s >           ",
"% % % & X J ;.^ p P =.*.*.o.f s f s s } H ) &.-.P s > o & % % % ",
"2.<.<.5.q k ;.W p P =.*.=.o.g f s g s C } H } -.P g - z 2.<.1.<.",
"2.2.<.5.q k :.^ p P =.*.=.o.f s f s s } H ) %.-.P g - z 5.<.2.2.",
"1.2.1.6.q k ;.W p P -.*.*.o.g s f g f C } H } -.P s - z 5.<.2.2.",
"2.1.1.5.q k :.^ p P =.*.=.o.g s s s s { H ) %.-.P g - z 5.2.<.2.",
"2.2.1.5.q k :.W p P =.*.=.o.s s f s f C } H { -.P g - z 5.<.2.2.",
"2.2.1.5.w k ;.W p H -.*.=.o.g g g s g X.G ` -.-.P s : z 5.<.2.2."
};
