/* XPM */
static char *_765041086_Untitled_design_3_1_[] = {
/* columns rows colors chars-per-pixel */
"32 32 201 2 ",
"   c #010101",
".  c #080306",
"X  c #0D0C0C",
"o  c #060709",
"O  c #03170B",
"+  c #161616",
"@  c #1A1614",
"#  c #1B1C1C",
"$  c #130F0D",
"%  c #241109",
"&  c #28140C",
"*  c #30180F",
"=  c #063414",
"-  c #25201D",
";  c #1A1E21",
":  c #261C25",
">  c #222222",
",  c #2E2D2E",
"<  c #28272C",
"1  c #313131",
"2  c #3C3432",
"3  c #3F372E",
"4  c #532816",
"5  c #442518",
"6  c #7E3C1D",
"7  c #7B3C20",
"8  c #53332A",
"9  c #08571F",
"0  c #0B401A",
"q  c #0B5A22",
"w  c #116C2E",
"e  c #7C442D",
"r  c #7A4227",
"t  c #7A4D3D",
"y  c #566C2E",
"u  c #5A6F33",
"i  c #3F3F40",
"p  c #15377E",
"a  c #2E7C45",
"s  c #185679",
"d  c #2B427D",
"f  c #255D7E",
"g  c #1E766C",
"h  c #1D7A6A",
"j  c #2A6D73",
"k  c #4C494B",
"l  c #504B47",
"z  c #525252",
"x  c #6C5A50",
"c  c #4A7E4B",
"v  c #756658",
"b  c #6A704A",
"n  c #515C7E",
"m  c #556E79",
"M  c #536C78",
"N  c #676766",
"B  c #6B6B6B",
"V  c #666B6A",
"C  c #797A79",
"Z  c #767676",
"A  c #736E69",
"S  c #83341F",
"D  c #893D26",
"F  c #844325",
"G  c #83462A",
"H  c #85482D",
"J  c #8C4A2C",
"K  c #8B4526",
"L  c #8C4E32",
"P  c #86523A",
"I  c #8C5031",
"U  c #9A533C",
"Y  c #9B6447",
"T  c #8F644E",
"R  c #A97557",
"E  c #A36C4C",
"W  c #8F7D75",
"Q  c #877766",
"!  c #00B72F",
"~  c #00B534",
"^  c #00BD35",
"/  c #04BB3B",
"(  c #08BA3C",
")  c #0EC33E",
"_  c #04C539",
"`  c #179C55",
"'  c #12A84E",
"]  c #0FBB42",
"[  c #11BB43",
"{  c #15B253",
"}  c #3BAD5D",
"|  c #35AF59",
" . c #2AB553",
".. c #198762",
"X. c #4D9964",
"o. c #6E9E7D",
"O. c #6D866F",
"+. c #55A46C",
"@. c #5BA572",
"#. c #4AAA67",
"$. c #63A878",
"%. c #0CC343",
"&. c #0BCD44",
"*. c #10CB46",
"=. c #12C848",
"-. c #44C96C",
";. c #FFFF3C",
":. c #8BAB5B",
">. c #AAB75B",
",. c #8F8670",
"<. c #B58367",
"1. c #91AE72",
"2. c #C99F7F",
"3. c #E8EE49",
"4. c #1D3E88",
"5. c #283C8F",
"6. c #223891",
"7. c #1C4088",
"8. c #1D5680",
"9. c #23448B",
"0. c #2A448D",
"q. c #2B4A8B",
"w. c #294885",
"e. c #344981",
"r. c #37538E",
"t. c #3B5993",
"y. c #254E89",
"u. c #465E92",
"i. c #5F6F90",
"p. c #536C93",
"a. c #707B95",
"s. c #5A70A3",
"d. c #6B7FAD",
"f. c #887382",
"g. c #799D84",
"h. c #7CAA88",
"j. c #7286AF",
"k. c #5ED080",
"l. c #69D287",
"z. c #858584",
"x. c #888585",
"c. c #8D8D8D",
"v. c #928C89",
"b. c #969696",
"n. c #989797",
"m. c #959996",
"M. c #9C979B",
"N. c #979999",
"B. c #999A9A",
"V. c #989898",
"C. c #8B9091",
"Z. c #A1959E",
"A. c #A39D9B",
"S. c #8DA293",
"D. c #98A19A",
"F. c #8996B2",
"G. c #A39DA1",
"H. c #A993A3",
"J. c #9FA0A0",
"K. c #A2A2A2",
"L. c #AAA9A8",
"P. c #B8B1A4",
"I. c #D2A98B",
"U. c #CFB69C",
"Y. c #E3BC9C",
"T. c #CDBCA8",
"R. c #D8BCA9",
"E. c #E1BBA5",
"W. c #8FC289",
"Q. c #A4CD8D",
"!. c #A8CF8F",
"~. c #A9CF91",
"^. c #ABD694",
"/. c #9EDDB1",
"(. c #98DFAD",
"). c #9BE2B0",
"_. c #A1E2B4",
"`. c #D2C3A6",
"'. c #E6C9AA",
"]. c #ECCCB1",
"[. c #EED2B3",
"{. c #F3D4B5",
"}. c #F5D7B8",
"|. c #FDD5BC",
" X c #F6D9BA",
".X c #FDDBBC",
"XX c #F0D1AF",
"oX c #FAE0BE",
"OX c #9BA9C6",
"+X c #B0BBCF",
"@X c #BEEDCB",
"#X c #FFDBC0",
"$X c #D5F2DE",
"%X c #FEE3C2",
"&X c #FFEACB",
"*X c #FFF4D2",
"=X c #DFF4E5",
"-X c #EBEBEC",
";X c #F5F5F6",
":X c #FDFEFE",
">X c #F6F8F6",
/* pixels */
"B.B.B.B.V.V.B.B.V.V.M.H.M.G.k   : H.Z.n.N.N.N.N.n.B.B.n.n.K.N   ",
"B.B.B.B.B.B.N.V.V.V.o.+.@.@.a 9 w @.@.m.N.N.N.N.n.B.B.n.n.K.B   ",
"B.B.B.N.B.B.V.B.n.H.} ^ ] / %.*.%./ ] b.H.M.M.Z.A.N.N.B.n.K.N   ",
"n.n.n.V.n.V.N.M.g.|  .] ] [ [ [ [ [ [ | } } } | o.M.N.N.n.K.N   ",
"B.B.B.B.n.n.m.M.$._ _ %.%._ / / / ] &._ / ^ / ^ #.H.n.N.n.K.N   ",
"K.B.K.B.J.G.G.K.,.y u u y b Q.Q.Q.X.0 1.~.h.h.h.S.G.D.K.B.L.B   ",
"1 1 1 1 1 , , , 8 D D K S U |.|.%Xx   E.#X2 : < < , 1 1 1 1 >   ",
"            $ 4 T Y.Y F 2.`.{.{..Xx   U. X,.Q ,.3               ",
"z z z z z X * K <.&XR 6 Y..X}.{.%Xv   U. XoXoX*XQ o k z z z z z ",
"K.K.K.K.L.; & G <.&XE 6 H Y {.}.}.].`.3 3  X}.}.].U.K.K.L.K.K.J.",
"n.n.n.n.B.; & K R XXR J L Y {.}.}.}. X- - [.[.].{.].n.N.m.n.m.n.",
"n.N.n.N.M.# & J H r I. XXX{.}.{.%Xv + .   @ @ @ @ @ x.B.V.V.V.N.",
"n.n.B.B.B.; % H H r I.#X{.}.}.{.%Xx . $ X . X o     x.A.n.V.V.V.",
"B.B.B.B.B.<   l G.v.'.#X.XoX.X.X.X|.].].].XXT.B   o c.A.N.B.B.B.",
"c.C.c.c.b.>   k S.$.S.!.L.L.Q.Q.Q.Q.~.`.T.T.P.B   o a.v.c.c.C.c.",
"X X X X X       = &._ _ s s / / / _ / O   . .       X X $ X X X ",
"            O q w =.[ %.f 8.[ [ ] ` ..w q 9 9 q =               ",
"C Z C C Z f.O.*.&.[ ( ] f f [ %.) h 5.{ *.&.=.&.X.f.C C Z z.z   ",
"B.K.B.K.D.$.#.] [ [ ) [ f q.g g h f q.' ] ] [ ] | $.m.K.B.L.B   ",
"n.V.n.V.S.~ ! / ( ] ) ) s 5.0.0.0.5.4.' ) ] ( / ^ ! C.m.n.K.N   ",
"B.N.B.V.B./.)._.-.) ..g :.1.w.w.9.O.>.j ..( -.).)./.B.V.m.K.N   ",
"n.n.n.b.K.:X:X:X_.( j 5.3.3.w.q.4.>.;.M f ! l.:X:X:XL.b.n.J.N   ",
"J.L.J.B.L.>X:X>X$X@Xs.d m m q.q.9.n m w.p.@X$X>X>X>XG.H.J.L.B   ",
"B B B B C >X:X:X:X:Xd.7.9.5.q.q.q.9.y.7.s.:X:X:X:X>Xg.B B Z k   ",
"        X ;X:X:X+Xt.r.9.q.q.q.q.q.q.q.q.r.u.F.:X:X>X+           ",
"+ + + + , -X>X:XOX4.q.q.q.q.q.q.q.q.q.q.q.4.j.>X;X-X1 + + + + + ",
"n.n.m.b.V.i # N C.9.q.0.9.r.c.C.C.u.9.0.q.9.i.x.# > z.N.b.n.n.m.",
"B.B.V.V.B.#   l a.w.e.e.q.u.A.M.A.i.q.e.e.w.i.A     x.J.V.B.B.V.",
"n.N.N.N.B.; % H H e e r x.B.n.n.B.n.b.t r e H L 5   c.B.V.V.V.V.",
"B.B.B.N.A.> * J F F K F v.B.n.B.B.B.n.P F K F J 4 o x.J.n.V.B.N.",
"B.B.N.M.v.r F F K F F r v.B.n.B.n.B.b.P F F F F H 7 W B.V.B.V.B.",
"B.N.N.M.b.r F F H H H H v.B.N.B.n.N.n.P F H H H F 7 W B.V.B.V.B."
};
